# xmcd
#
# Track frame offsets:
# 150
# 25328
# 48237
# 66846
# 93934
# 116602
# 131894
# 152333
# 179339
# 200710
# 217771
# 241162
# 258378
# 279308
# 294898
#
# Disc length: 4177 seconds
#
#
# Revision: 3
# Processed by: cddbd v1.5.1PL0 Copyright (c) Steve Scherf et al.
# Submitted via: FreeRIP 2.60 
#
DISCID=cf104f0f
DTITLE=The Brothers Johnson - Classics (Volume 11)
DYEAR=1900
DGENRE=Funk
TTITLE0=Ain't We Funkin' Now
TTITLE1=Strawberry Letter #23
TTITLE2=Free and Single
TTITLE3=Stomp
TTITLE4=Runnin' For Your Lovin'
TTITLE5="Q"
TTITLE6=Land Of Ladies
TTITLE7=Get The Funk Out Ma Face
TTITLE8=I'll Be Good To You
TTITLE9=Light Up The Night
TTITLE10=You Keep Me Coming Back
TTITLE11=The Real Thing
TTITLE12=Tokyo
TTITLE13=Ride-O-Rocket
TTITLE14=Funk It (Funkadelala)
EXTD=
EXTT0=
EXTT1=
EXTT2=
EXTT3=
EXTT4=
EXTT5=
EXTT6=
EXTT7=
EXTT8=
EXTT9=
EXTT10=
EXTT11=
EXTT12=
EXTT13=
EXTT14=
PLAYORDER=
